REM DIRINDEX 1\2\6,1\2\7,1\2\8,1\2\9,1\3\10,1\3\11,1\4\12,1\4\13,1\4\14,1\5\15,1\5\16,1\5\17
REM DIRNAME cjc029,folder01,folder02,folder03,folder04,folder05,folder06,folder07,folder08,folder09,folder10,folder11,folder12,folder13,folder14,folder15,folder16
TITLE ""
FILE "1400_3_sec11_1001_1016.mp3" MP3
  TRACK 01 AUDIO
    TITLE "0:"
    INDEX 01 00:00:00
  TRACK 02 AUDIO
    TITLE "15:cjc029_6438"
    INDEX 01 00:00:17
  TRACK 03 AUDIO
    TITLE "0:"
    INDEX 01 00:01:60
  TRACK 04 AUDIO
    TITLE "17:cjc029_6439"
    INDEX 01 00:02:65
  TRACK 05 AUDIO
    TITLE "0:"
    INDEX 01 00:04:21
  TRACK 06 AUDIO
    TITLE "16:cjc029_6440"
    INDEX 01 00:04:25
  TRACK 07 AUDIO
    TITLE "0:"
    INDEX 01 00:05:24
  TRACK 08 AUDIO
    TITLE "17:cjc029_6441"
    INDEX 01 00:06:08
  TRACK 09 AUDIO
    TITLE "0:"
    INDEX 01 00:07:27
  TRACK 10 AUDIO
    TITLE "16:cjc029_6442"
    INDEX 01 00:07:31
  TRACK 11 AUDIO
    TITLE "0:"
    INDEX 01 00:08:36
  TRACK 12 AUDIO
    TITLE "17:cjc029_6443"
    INDEX 01 00:09:22
  TRACK 13 AUDIO
    TITLE "0:"
    INDEX 01 00:10:55
  TRACK 14 AUDIO
    TITLE "16:cjc029_6444"
    INDEX 01 00:10:61
  TRACK 15 AUDIO
    TITLE "0:"
    INDEX 01 00:11:66
  TRACK 16 AUDIO
    TITLE "17:cjc029_6445"
    INDEX 01 00:12:52
  TRACK 17 AUDIO
    TITLE "0:"
    INDEX 01 00:15:30
  TRACK 18 AUDIO
    TITLE "16:cjc029_6446"
    INDEX 01 00:15:34
  TRACK 19 AUDIO
    TITLE "0:"
    INDEX 01 00:16:51
  TRACK 20 AUDIO
    TITLE "17:cjc029_6447"
    INDEX 01 00:17:37
  TRACK 21 AUDIO
    TITLE "0:"
    INDEX 01 00:21:13
  TRACK 22 AUDIO
    TITLE "16:cjc029_6448"
    INDEX 01 00:21:17
  TRACK 23 AUDIO
    TITLE "0:"
    INDEX 01 00:22:42
  TRACK 24 AUDIO
    TITLE "17:cjc029_6449"
    INDEX 01 00:23:24
  TRACK 25 AUDIO
    TITLE "0:"
    INDEX 01 00:24:27
  TRACK 26 AUDIO
    TITLE "16:cjc029_6450"
    INDEX 01 00:24:31
  TRACK 27 AUDIO
    TITLE "0:"
    INDEX 01 00:25:33
  TRACK 28 AUDIO
    TITLE "17:cjc029_6451"
    INDEX 01 00:26:13
  TRACK 29 AUDIO
    TITLE "0:"
    INDEX 01 00:30:24
  TRACK 30 AUDIO
    TITLE "16:cjc029_6452"
    INDEX 01 00:30:30
  TRACK 31 AUDIO
    TITLE "0:"
    INDEX 01 00:31:43
  TRACK 32 AUDIO
    TITLE "17:cjc029_6453"
    INDEX 01 00:32:29
  TRACK 33 AUDIO
    TITLE "0:"
    INDEX 01 00:33:73
  TRACK 34 AUDIO
    TITLE "16:cjc029_6454"
    INDEX 01 00:34:04
  TRACK 35 AUDIO
    TITLE "0:"
    INDEX 01 00:35:06
  TRACK 36 AUDIO
    TITLE "17:cjc029_6455"
    INDEX 01 00:35:66
  TRACK 37 AUDIO
    TITLE "0:"
    INDEX 01 00:37:07
  TRACK 38 AUDIO
    TITLE "16:cjc029_6456"
    INDEX 01 00:37:12
  TRACK 39 AUDIO
    TITLE "0:"
    INDEX 01 00:38:18
  TRACK 40 AUDIO
    TITLE "17:cjc029_6457"
    INDEX 01 00:39:00
  TRACK 41 AUDIO
    TITLE "0:"
    INDEX 01 00:40:19
  TRACK 42 AUDIO
    TITLE "16:cjc029_6458"
    INDEX 01 00:40:24
  TRACK 43 AUDIO
    TITLE "0:"
    INDEX 01 00:41:51
  TRACK 44 AUDIO
    TITLE "17:cjc029_6459"
    INDEX 01 00:42:37
  TRACK 45 AUDIO
    TITLE "0:"
    INDEX 01 00:43:72
  TRACK 46 AUDIO
    TITLE "16:cjc029_6460"
    INDEX 01 00:44:05
  TRACK 47 AUDIO
    TITLE "0:"
    INDEX 01 00:45:18
  TRACK 48 AUDIO
    TITLE "17:cjc029_6461"
    INDEX 01 00:46:04
  TRACK 49 AUDIO
    TITLE "0:"
    INDEX 01 00:48:12
  TRACK 50 AUDIO
    TITLE "16:cjc029_6462"
    INDEX 01 00:48:16
  TRACK 51 AUDIO
    TITLE "0:"
    INDEX 01 00:49:31
  TRACK 52 AUDIO
    TITLE "17:cjc029_6463"
    INDEX 01 00:50:19
  TRACK 53 AUDIO
    TITLE "0:"
    INDEX 01 00:51:30
  TRACK 54 AUDIO
    TITLE "16:cjc029_6464"
    INDEX 01 00:51:40
  TRACK 55 AUDIO
    TITLE "0:"
    INDEX 01 00:52:45
  TRACK 56 AUDIO
    TITLE "17:cjc029_6465"
    INDEX 01 00:53:29
  TRACK 57 AUDIO
    TITLE "0:"
    INDEX 01 00:55:18
  TRACK 58 AUDIO
    TITLE "16:cjc029_6466"
    INDEX 01 00:55:26
  TRACK 59 AUDIO
    TITLE "0:"
    INDEX 01 00:56:45
  TRACK 60 AUDIO
    TITLE "17:cjc029_6467"
    INDEX 01 00:57:31
  TRACK 61 AUDIO
    TITLE "0:"
    INDEX 01 00:59:49
  TRACK 62 AUDIO
    TITLE "16:cjc029_6468"
    INDEX 01 00:59:55
  TRACK 63 AUDIO
    TITLE "0:"
    INDEX 01 01:01:03
  TRACK 64 AUDIO
    TITLE "17:cjc029_6469"
    INDEX 01 01:01:64
  TRACK 65 AUDIO
    TITLE "0:"
    INDEX 01 01:04:45
  TRACK 66 AUDIO
    TITLE "16:cjc029_6470"
    INDEX 01 01:04:48
  TRACK 67 AUDIO
    TITLE "0:"
    INDEX 01 01:05:54
